# xmcd
#
# Track frame offsets: 
#        150
#        1521
#        22668
#        44974
#        59538
#        70211
#        86700
#        99574
#        114932
#        127477
#        131538
#        150729
#
# Disc length: 2276 seconds
#
# Revision: 0
# Processed by: cddbd v1.5.2PL0 Copyright (c) Steve Scherf et al.
# Submitted via: ExactAudioCopy v0.95b3
#
DISCID=9e08e20c
DTITLE=Steve Miller Band  - Fly Like An Eagle (2006) 30th Anniversary 
DTITLE=Remaster FLAC
DYEAR=1900
DGENRE=
TTITLE0=Space Intro.
TTITLE1=Fly Like An Eagle
TTITLE2=Wild Mountain Honey
TTITLE3=Serenade
TTITLE4=Dance, Dance, Dance
TTITLE5=Mercury Blues
TTITLE6=Take The Money And Run
TTITLE7=Rock'n Me
TTITLE8=You Send Me
TTITLE9=Blue Odyssey
TTITLE10=Sweet Maree
TTITLE11=The Window
EXTD=
EXTT0=
EXTT1=
EXTT2=
EXTT3=
EXTT4=
EXTT5=
EXTT6=
EXTT7=
EXTT8=
EXTT9=
EXTT10=
EXTT11=
PLAYORDER=
